<svg width="20" height="20" viewBox="0 0 20 20" fill="none" xmlns="http://www.w3.org/2000/svg">
<path d="M9.99167 1.66667C5.39167 1.66667 1.66667 5.40001 1.66667 10C1.66667 14.6 5.39167 18.3333 9.99167 18.3333C14.6 18.3333 18.3333 14.6 18.3333 10C18.3333 5.40001 14.6 1.66667 9.99167 1.66667ZM7.08333 6.66667C7.775 6.66667 8.33333 7.22501 8.33333 7.91667C8.33333 8.60834 7.775 9.16667 7.08333 9.16667C6.39167 9.16667 5.83333 8.60834 5.83333 7.91667C5.83333 7.22501 6.39167 6.66667 7.08333 6.66667ZM10 15C8.1 15 6.48333 13.6167 5.83333 11.6667H14.1667C13.5167 13.6167 11.9 15 10 15ZM12.9167 9.16667C12.225 9.16667 11.6667 8.60834 11.6667 7.91667C11.6667 7.22501 12.225 6.66667 12.9167 6.66667C13.6083 6.66667 14.1667 7.22501 14.1667 7.91667C14.1667 8.60834 13.6083 9.16667 12.9167 9.16667Z" fill="black" fill-opacity="0.54"/>
</svg>
